<?xml version="1.0" encoding="UTF-8" standalone="no"?>
<!-- Created with Inkscape (http://www.inkscape.org/) -->

<svg
   xmlns:dc="http://purl.org/dc/elements/1.1/"
   xmlns:cc="http://creativecommons.org/ns#"
   xmlns:rdf="http://www.w3.org/1999/02/22-rdf-syntax-ns#"
   xmlns:svg="http://www.w3.org/2000/svg"
   xmlns="http://www.w3.org/2000/svg"
   xmlns:sodipodi="http://sodipodi.sourceforge.net/DTD/sodipodi-0.dtd"
   xmlns:inkscape="http://www.inkscape.org/namespaces/inkscape"
   id="svg3371"
   version="1.1"
   inkscape:version="0.91 r13725"
   xml:space="preserve"
   width="774.90997"
   height="692.34998"
   viewBox="0 0 774.90997 692.34998"
   sodipodi:docname="sasylf.svg"><metadata
     id="metadata3377"><rdf:RDF><cc:Work
         rdf:about=""><dc:format>image/svg+xml</dc:format><dc:type
           rdf:resource="http://purl.org/dc/dcmitype/StillImage" /><dc:title></dc:title></cc:Work></rdf:RDF></metadata><defs
     id="defs3375" /><sodipodi:namedview
     pagecolor="#ffffff"
     bordercolor="#666666"
     borderopacity="1"
     objecttolerance="10"
     gridtolerance="10"
     guidetolerance="10"
     inkscape:pageopacity="0"
     inkscape:pageshadow="2"
     inkscape:window-width="885"
     inkscape:window-height="861"
     id="namedview3373"
     showgrid="false"
     inkscape:zoom="0.12055556"
     inkscape:cx="1579.7696"
     inkscape:cy="-1076.5137"
     inkscape:window-x="217"
     inkscape:window-y="1"
     inkscape:window-maximized="0"
     inkscape:current-layer="g3379"
     fit-margin-top="0"
     fit-margin-left="0"
     fit-margin-right="0"
     fit-margin-bottom="0" /><g
     id="g3379"
     inkscape:groupmode="layer"
     inkscape:label="icfp08sasylf"
     transform="matrix(1.25,0,0,-1.25,-40.230437,5003.0876)"><g
       transform="translate(264.46535,3594.0331)"
       id="g3927"><path
         inkscape:connector-curvature="0"
         id="path3929"
         style="fill:#ffffff;fill-opacity:1;fill-rule:nonzero;stroke:none"
         d="m 0,0 -9.71,-93.86 -118.139,0 c 0,0 11.327,35.601 46.93,35.601 35.604,0 71.209,-35.601 71.209,-35.601" /></g><g
       transform="translate(126.65335,3492.8911)"
       id="g3931"><path
         inkscape:connector-curvature="0"
         id="path3933"
         style="fill:#231e20;fill-opacity:1;fill-rule:nonzero;stroke:none"
         d="m 0,0 3.018,9.497 c 0.192,0.516 3.24,10.16 11.423,20.206 8.06,9.994 22.077,20.529 42.455,20.468 26.979,-0.375 51.77,-17.069 65.406,-28.125 l 8.261,79.855 0.009,-0.01 14.482,-1.498 L 134.673,0 0,0 Z m 108.14,14.574 c -1.965,1.456 -4.085,2.954 -6.33,4.452 -12.72,8.549 -29.572,16.67 -44.914,16.58 -13.37,-0.048 -22.17,-5.618 -28.632,-12.242 -2.783,-2.887 -5.016,-5.983 -6.737,-8.79 l 86.613,0" /></g><g
       transform="translate(350.23235,3592.4161)"
       id="g3935"><path
         inkscape:connector-curvature="0"
         id="path3937"
         style="fill:#ffffff;fill-opacity:1;fill-rule:nonzero;stroke:none"
         d="m 0,0 45.31,-93.864 132.704,-37.218 c 0,0 -27.517,37.218 -59.88,45.311 -32.363,8.093 -72.824,-8.093 -72.824,-8.093" /></g><g
       transform="translate(390.40335,3492.4361)"
       id="g3939"><path
         inkscape:connector-curvature="0"
         id="path3941"
         style="fill:#231e20;fill-opacity:1;fill-rule:nonzero;stroke:none"
         d="m 0,0 -46.726,96.818 13.107,6.334 42.48,-87.986 c 9.603,3.182 28.746,8.558 49.09,8.601 7.208,0 14.581,-0.692 21.778,-2.484 36.196,-9.482 63.398,-47.691 63.964,-48.047 L 156.348,-43.846 0,0 Z m 115.598,-17.296 c -0.185,0.176 -0.37,0.351 -0.555,0.527 C 104.62,-6.875 90.313,3.694 76.192,7.15 70.443,8.591 64.218,9.207 57.951,9.207 48.826,9.221 39.643,7.913 31.678,6.244 l 83.92,-23.54 z m -162.326,114.119 0.002,-0.005 -0.002,-0.005 0,0.01" /></g><g
       transform="translate(233.71435,3650.9881)"
       id="g3943"><path
         inkscape:connector-curvature="0"
         id="path3945"
         style="fill:#652c90;fill-opacity:1;fill-rule:nonzero;stroke:none"
         d="m 0,0 -9.71,-79.613 72.824,-8.088 -1.622,29.129 34.8,-34.795 94.666,12.138 -50.166,80.916" /></g><g
       transform="translate(303.54135,3573.7931)"
       id="g3947"><path
         inkscape:connector-curvature="0"
         id="path3949"
         style="fill:#231e20;fill-opacity:1;fill-rule:nonzero;stroke:none"
         d="m 0,0 1.043,-18.689 -88.703,9.861 10.598,86.905 0.01,0 14.453,-1.75 -8.818,-72.311 56.945,-6.329 -2.195,39.569 L 29.087,-8.481 108.979,1.75 64.776,73.046 77.155,80.722 133.292,-9.809 23.836,-23.833 0,0" /></g><g
       transform="translate(599.76635,3602.8991)"
       id="g3951"><path
         inkscape:connector-curvature="0"
         id="path3953"
         style="fill:#ffffff;fill-opacity:1;fill-rule:nonzero;stroke:none"
         d="m 0,0 -518.26,28.381 8.041,146.808 L 8.041,146.808 0,0" /></g><g
       transform="translate(73.83035,3624.4141)"
       id="g3955"><path
         inkscape:connector-curvature="0"
         id="path3957"
         style="fill:#010202;fill-opacity:1;fill-rule:nonzero;stroke:none"
         d="M 0,0 8.837,161.345 541.648,132.183 533.201,-21.908 532.808,-29.181 0,0 Z m 525.938,-21.515 0.396,7.273 -0.396,-7.273 z M 15.344,13.749 519.063,-13.844 526.303,118.433 22.587,146.012 15.344,13.749" /></g><g
       transform="translate(180.67335,3681.0941)"
       id="g3959"><path
         inkscape:connector-curvature="0"
         id="path3961"
         style="fill:#010202;fill-opacity:1;fill-rule:nonzero;stroke:none"
         d="m 0,0 c -0.085,-1.574 -0.559,-3.418 -1.425,-5.533 -0.675,-1.711 -1.393,-3.461 -2.157,-5.248 -3.911,-10.677 -14.406,-15.551 -31.481,-14.617 -2.321,0.128 -5.786,0.607 -10.397,1.446 -5.682,0.977 -8.795,1.854 -9.335,2.631 -0.356,1.101 -0.894,2.67 -1.615,4.703 -2.05,5.012 -3.06,7.781 -3.034,8.273 0.168,3.063 3.032,9.108 8.598,18.112 0.993,-0.057 3.93,-1.816 8.814,-5.287 4.881,-3.465 9.477,-5.314 13.789,-5.551 1.077,-0.057 2.316,0.512 3.71,1.73 1.397,1.209 2.127,2.352 2.186,3.433 0.064,1.166 -0.635,2.067 -2.096,2.731 -1.145,0.398 -2.285,0.834 -3.42,1.313 -4.765,2.588 -9.485,5.215 -14.162,7.884 -4.08,2.883 -7.297,7.216 -9.639,12.996 -2.2,5.362 -3.212,9.652 -3.036,12.886 0.137,2.494 0.91,5.197 2.316,8.107 1.507,3.243 5.81,6.685 12.912,10.331 7.1,3.646 12.559,5.362 16.371,5.153 3.648,-0.198 7.579,-1.246 11.801,-3.138 4.874,-2.095 8.022,-4.561 9.446,-7.382 1.126,-2.224 1.536,-6.106 1.233,-11.663 -0.083,-1.493 -1.076,-3.333 -2.982,-5.509 -1.908,-2.186 -3.608,-3.239 -5.099,-3.153 -0.086,0.005 -2.072,0.863 -5.969,2.574 -3.9,1.708 -7.05,2.627 -9.452,2.76 -1.327,0.071 -2.019,-0.385 -2.074,-1.379 -0.099,-1.831 1.773,-4.092 5.616,-6.795 2.814,-1.735 5.59,-3.447 8.323,-5.135 2.736,-1.687 4.933,-4.034 6.6,-7.031 0.834,-1.46 2.024,-4.395 3.57,-8.804 C -0.54,6.434 0.154,2.821 0,0 Z m -6.77,3.864 c 0.358,6.543 -0.849,11.81 -3.625,15.788 -1.467,2.072 -4.539,4.442 -9.214,7.112 -5.73,3.224 -9.385,5.504 -10.973,6.832 -3.497,3.025 -5.142,6.4 -4.938,10.127 0.287,5.224 4.326,7.619 12.118,7.192 3.812,-0.209 7.785,-1.342 11.912,-3.395 l 3.871,6.904 c 0.059,1.071 -2.273,2.527 -6.993,4.366 -4.231,1.73 -7.173,2.641 -8.83,2.731 -3.234,0.18 -8.873,-1.802 -16.912,-5.936 -6.763,-3.537 -10.3,-8.164 -10.615,-13.887 -0.353,-6.462 2.394,-11.687 8.247,-15.664 5.493,-2.963 10.983,-5.879 16.482,-8.757 5.868,-3.646 8.655,-8.207 8.357,-13.678 -0.152,-2.736 -1.47,-4.822 -3.964,-6.273 -2.148,-1.299 -4.634,-1.858 -7.451,-1.706 -5.307,0.289 -11.988,3.56 -20.04,9.823 -1.316,-2.75 -3.419,-7.045 -6.315,-12.872 l -0.041,-0.745 c 6.692,-3.783 13.894,-5.874 21.603,-6.296 5.057,-0.275 8.928,-0.199 11.611,0.238 4.355,0.587 8.006,2.678 10.945,6.258 2.939,3.579 4.528,7.524 4.765,11.838 z m -16.914,-24.217 c -2.089,1.076 -3.829,1.697 -5.222,1.858 4.032,-0.223 2.225,-0.124 -5.429,0.294 -6.908,0.379 -13.903,2.262 -20.977,5.642 1.178,-2.598 2.207,-4.893 3.091,-6.879 1.802,-0.185 4.706,-0.64 8.71,-1.361 3.674,-0.712 6.54,-1.129 8.595,-1.238 6.415,-0.35 10.158,0.209 11.232,1.684 z m 12.742,59.614 0.047,0.873 c 0.012,0.246 -0.007,0.639 -0.059,1.185 -0.057,0.545 -0.119,0.896 -0.192,1.067 -2.34,1.375 -3.796,2.081 -4.374,2.109 -1.825,0.1 -3.809,-0.412 -5.95,-1.545 3.231,-0.257 6.739,-1.489 10.528,-3.689" /></g><g
       transform="translate(268.76335,3670.4081)"
       id="g3963"><path
         inkscape:connector-curvature="0"
         id="path3965"
         style="fill:#010202;fill-opacity:1;fill-rule:nonzero;stroke:none"
         d="m 0,0 c -0.064,-1.162 -0.78,-2.039 -2.141,-2.627 -2.193,-0.545 -5.445,-1.531 -9.764,-2.954 -2.394,-1.204 -5.888,-2.754 -10.483,-4.665 -0.505,-0.142 -1.827,-0.692 -3.956,-1.654 -1.704,-0.745 -2.724,-1.101 -3.051,-1.082 -1.576,0.086 -3.724,1.911 -6.436,5.467 -2.717,3.561 -4.087,5.874 -4.108,6.96 -0.354,5.756 -1.37,12.213 -3.058,19.372 -2.008,-0.308 -4.537,-0.915 -7.581,-1.83 0.983,-10.862 1.351,-18.618 1.095,-23.26 -0.145,-2.655 -0.524,-4.248 -1.136,-4.803 -0.969,-1.024 -3.001,-2.451 -6.094,-4.276 -0.19,-0.403 -0.676,-0.92 -1.456,-1.541 -6.4,-2.977 -10.513,-4.409 -12.336,-4.31 -0.91,0.053 -3.281,1.551 -7.109,4.5 -3.03,2.413 -4.621,3.702 -4.777,3.878 -1.98,1.858 -2.923,3.57 -2.835,5.149 0.178,3.233 1.237,7.49 3.193,12.787 1.259,3.257 2.517,6.514 3.776,9.775 0.299,0.897 4.267,14.11 11.9,39.627 1.321,4.338 3.03,8.273 5.137,11.819 0.598,0.299 1.451,0.707 2.563,1.233 2.131,0.963 4.492,1.584 7.085,1.859 1.833,0.066 3.71,0.17 5.631,0.313 1.173,0.189 3.356,0.564 6.547,1.138 2.688,0.516 4.198,0.763 4.53,0.749 0.827,-0.048 2.33,-0.688 4.507,-1.93 2.178,-1.238 3.42,-2.081 3.731,-2.513 1.069,-3.219 2.662,-7.5 4.781,-12.858 1.631,-3.579 3.53,-8.42 5.69,-14.527 2.527,-6.955 4.456,-12.008 5.781,-15.162 1.989,-4.593 4.025,-9.197 6.102,-13.801 C -1.387,4.271 0.038,0.659 0,0 Z m -13.19,9.7 -22.572,57.609 c -2.383,-0.953 -6.337,-1.712 -11.86,-2.28 -5.528,-0.569 -9.527,-1.413 -12.002,-2.523 -1.747,-4.475 -2.994,-8.273 -3.746,-11.383 -1.398,-5.746 -2.6,-10.203 -3.605,-13.389 -0.617,-2.214 -3.255,-10.724 -7.923,-25.526 -3.93,-11.919 -5.924,-18.419 -5.983,-19.496 -0.031,-0.578 0.107,-1.047 0.424,-1.403 l 1.496,-0.08 c 1.825,-0.1 5.384,0.99 10.675,3.281 4.269,1.925 7.268,3.427 8.991,4.499 0.062,1.161 0.024,4.238 -0.118,9.236 l 0.763,13.92 c 0.064,1.161 2.686,2.725 7.863,4.683 4.672,1.826 7.508,2.708 8.501,2.656 1.74,-0.096 3.219,-3.461 4.435,-10.094 0.861,-5.538 1.683,-11.066 2.459,-16.599 1.955,0.725 5.622,1.731 11.018,3.015 4.627,1.072 8.361,2.366 11.184,3.874 z M -55.296,-9.976 c -0.561,0.451 -1.23,1.114 -2.012,1.996 -0.783,0.887 -1.342,1.342 -1.674,1.357 -0.329,0.018 -2.712,-0.944 -7.14,-2.888 -2.297,-0.967 -5.424,-1.854 -9.373,-2.641 3.319,-3.125 5.144,-4.698 5.476,-4.717 0.5,-0.028 2.622,0.777 6.369,2.422 4.175,1.793 6.958,3.281 8.354,4.471 z m 12.863,52.707 c -0.088,-1.574 -0.557,-2.508 -1.399,-2.792 -6.026,-2.162 -9.574,-3.215 -10.651,-3.158 -1.74,0.095 -2.553,1.181 -2.441,3.253 0.256,4.641 1.515,8.723 3.79,12.26 2.729,1.266 5.339,1.787 7.818,1.57 1.176,-1.309 2.136,-5.026 2.883,-11.133 z m -5.571,0.806 c -0.22,0.507 -0.633,1.299 -1.24,2.371 -0.606,1.076 -1.019,1.867 -1.239,2.38 -0.652,-2.712 -1.008,-4.646 -1.07,-5.808 0.761,0.209 1.944,0.56 3.549,1.057 z M -7.053,1.005 c -1.92,2.934 -2.963,4.404 -3.129,4.413 -0.415,0.024 -2.022,-0.511 -4.826,-1.601 -3.563,-1.305 -5.851,-2.134 -6.872,-2.495 -2.094,-0.303 -4.95,-0.81 -8.563,-1.527 -0.846,-0.288 -1.697,-0.592 -2.543,-0.914 -0.851,-0.332 -1.42,-0.863 -1.71,-1.598 3.054,-3.409 5.038,-5.135 5.95,-5.187 0.332,-0.014 3.222,1.11 8.667,3.39 6.725,2.873 11.068,4.712 13.026,5.519" /></g><g
       transform="translate(331.74835,3672.8211)"
       id="g3967"><path
         inkscape:connector-curvature="0"
         id="path3969"
         style="fill:#010202;fill-opacity:1;fill-rule:nonzero;stroke:none"
         d="M 0,0 C -0.085,-1.574 -0.561,-3.419 -1.424,-5.528 -2.1,-7.245 -2.82,-8.994 -3.581,-10.781 -7.493,-21.458 -17.99,-26.332 -35.065,-25.398 c -2.318,0.128 -5.784,0.607 -10.395,1.446 -5.684,0.976 -8.797,1.858 -9.335,2.631 -0.355,1.1 -0.896,2.669 -1.614,4.703 -2.053,5.016 -3.063,7.78 -3.037,8.273 0.168,3.063 3.032,9.108 8.598,18.112 0.996,-0.057 3.933,-1.816 8.816,-5.282 4.879,-3.471 9.475,-5.32 13.79,-5.557 1.076,-0.057 2.313,0.513 3.707,1.731 1.399,1.209 2.127,2.356 2.186,3.437 0.064,1.162 -0.633,2.063 -2.093,2.727 -1.148,0.398 -2.286,0.833 -3.421,1.313 -4.765,2.588 -9.485,5.215 -14.162,7.884 -4.079,2.883 -7.296,7.216 -9.641,12.996 -2.2,5.362 -3.21,9.652 -3.034,12.886 0.137,2.494 0.908,5.196 2.316,8.107 1.508,3.243 5.808,6.685 12.912,10.331 7.1,3.646 12.557,5.367 16.371,5.153 3.646,-0.199 7.579,-1.246 11.799,-3.138 4.873,-2.096 8.024,-4.561 9.449,-7.382 1.123,-2.224 1.536,-6.107 1.232,-11.663 -0.083,-1.494 -1.078,-3.333 -2.984,-5.509 -1.906,-2.186 -3.606,-3.239 -5.097,-3.153 -0.085,0.005 -2.072,0.862 -5.971,2.574 -3.897,1.707 -7.048,2.627 -9.452,2.759 -1.327,0.072 -2.017,-0.384 -2.072,-1.379 -0.099,-1.83 1.771,-4.092 5.616,-6.794 2.812,-1.736 5.588,-3.447 8.323,-5.135 2.736,-1.688 4.931,-4.034 6.6,-7.031 0.834,-1.46 2.024,-4.395 3.57,-8.804 C -0.542,6.434 0.155,2.821 0,0 Z m -6.772,3.864 c 0.358,6.547 -0.849,11.81 -3.625,15.787 -1.467,2.073 -4.539,4.443 -9.214,7.112 -5.727,3.225 -9.385,5.505 -10.976,6.837 -3.492,3.02 -5.137,6.396 -4.933,10.123 0.287,5.224 4.324,7.618 12.116,7.192 3.814,-0.209 7.785,-1.342 11.914,-3.395 l 3.871,6.903 c 0.06,1.072 -2.275,2.527 -6.995,4.371 -4.229,1.726 -7.171,2.636 -8.828,2.726 -3.233,0.181 -8.875,-1.801 -16.914,-5.935 -6.763,-3.537 -10.3,-8.165 -10.615,-13.887 -0.353,-6.462 2.397,-11.687 8.249,-15.66 5.491,-2.968 10.983,-5.883 16.48,-8.762 5.868,-3.645 8.655,-8.206 8.357,-13.678 -0.152,-2.735 -1.47,-4.822 -3.962,-6.267 -2.147,-1.304 -4.636,-1.864 -7.453,-1.712 -5.305,0.294 -11.985,3.565 -20.04,9.824 -1.313,-2.75 -3.419,-7.046 -6.313,-12.872 l -0.04,-0.745 c 6.689,-3.783 13.894,-5.874 21.603,-6.296 5.056,-0.275 8.925,-0.199 11.61,0.241 4.355,0.584 8.006,2.675 10.945,6.254 2.937,3.58 4.526,7.524 4.763,11.839 z m -16.914,-24.213 c -2.089,1.071 -3.826,1.693 -5.222,1.854 4.034,-0.223 2.225,-0.124 -5.427,0.298 -6.91,0.375 -13.903,2.257 -20.979,5.638 1.181,-2.594 2.209,-4.893 3.091,-6.88 1.804,-0.185 4.706,-0.639 8.712,-1.36 3.672,-0.712 6.538,-1.124 8.593,-1.238 6.415,-0.35 10.16,0.209 11.232,1.688 z m 12.742,59.61 0.047,0.872 c 0.014,0.247 -0.007,0.64 -0.059,1.185 -0.055,0.546 -0.119,0.897 -0.192,1.068 -2.338,1.379 -3.793,2.081 -4.376,2.109 -1.821,0.104 -3.805,-0.412 -5.946,-1.545 3.231,-0.257 6.74,-1.489 10.526,-3.689" /></g><g
       transform="translate(400.17935,3692.6481)"
       id="g3971"><path
         inkscape:connector-curvature="0"
         id="path3973"
         style="fill:#010202;fill-opacity:1;fill-rule:nonzero;stroke:none"
         d="m 0,0 c -1.844,-1.815 -3.693,-3.669 -5.545,-5.566 -2.37,-2.361 -3.894,-4.357 -4.568,-5.983 -0.668,-1.631 -1.161,-5.258 -1.469,-10.89 -0.079,-1.413 -0.783,-6.738 -2.12,-15.973 -1.337,-9.24 -2.138,-14.024 -2.408,-14.342 -1.091,-1.678 -3.622,-2.413 -7.602,-2.195 -0.83,0.042 -1.989,0.109 -3.48,0.189 -1.491,0.081 -2.487,0.133 -2.983,0.162 -0.915,0.052 -2.325,0.128 -4.229,0.232 -1.908,0.104 -3.318,0.18 -4.226,0.232 -2.24,0.123 -3.748,0.702 -4.521,1.745 -0.308,0.427 -0.977,2.332 -1.996,5.713 -1.019,3.371 -1.517,5.305 -1.491,5.808 0.123,2.228 0.493,5.614 1.117,10.15 0.623,4.533 0.995,7.918 1.118,10.156 0.086,1.569 0.444,3.935 1.074,7.097 0.631,3.163 0.989,5.529 1.074,7.102 0.088,1.57 -0.474,3.471 -1.683,5.695 -0.981,1.797 -1.927,3.555 -2.83,5.263 -0.076,0.084 -4.282,9.823 -12.619,29.209 0.232,1.218 3.362,2.888 9.378,5.026 5.604,2.072 9.236,3.101 10.897,3.091 5.152,-3.101 8.428,-5.552 9.824,-7.367 1.396,-1.817 2.65,-5.443 3.767,-10.886 0.524,-2.598 1.396,-6.41 2.617,-11.441 1.986,2.883 5.459,7.762 10.407,14.641 6.201,8.472 9.804,12.687 10.798,12.635 2.564,-0.142 6.225,-2.712 10.987,-7.718 4.753,-4.997 7.097,-8.824 7.036,-11.483 C 10.113,11.578 4.668,4.812 0,0 Z M -1.323,34.861 C -3.672,31.495 -7.825,25.659 -13.773,17.339 -20.882,7.501 -25.021,2.613 -26.185,2.674 c -0.993,0.057 -1.828,0.892 -2.484,2.508 -2.347,7.363 -6.24,18.301 -11.687,32.818 -0.337,-0.066 -5.215,-1.721 -14.631,-4.959 2.368,-5.609 6.045,-14.034 11.032,-25.266 1.314,-2.227 2.646,-4.541 3.995,-6.936 1.346,-2.399 1.951,-4.836 1.816,-7.32 -0.086,-1.569 -0.463,-3.826 -1.122,-6.78 -0.659,-2.949 -1.024,-5.082 -1.097,-6.405 l -2.127,-20.662 0.716,-0.417 c 0.745,-0.038 5.521,-0.299 14.335,-0.782 2.145,-0.118 3.264,-0.057 3.359,0.189 0.453,0.726 1.403,6.685 2.842,17.898 l 1.639,11.739 c 0.54,3.788 0.905,5.922 1.102,6.41 0.085,0.08 1.206,0.806 3.364,2.181 1.723,1.152 6.101,6.016 13.142,14.598 7.038,8.582 10.594,13.531 10.667,14.854 0.036,0.659 -1.337,2.147 -4.122,4.461 -2.465,1.958 -4.426,3.314 -5.877,4.058 z M -22.98,-46.135 c -0.827,0.042 -2.01,0.108 -3.544,0.194 -1.534,0.08 -2.672,0.142 -3.418,0.185 -0.664,0.038 -1.577,0.085 -2.738,0.151 -1.159,0.062 -2.029,0.109 -2.608,0.143 l -6.343,0.346 c 0.512,-1.219 1.377,-2.93 2.586,-5.13 12.611,-0.522 18.545,-0.725 17.8,-0.597 -0.334,1.512 -0.912,3.081 -1.735,4.708" /></g><g
       transform="translate(499.82835,3644.9141)"
       id="g3975"><path
         inkscape:connector-curvature="0"
         id="path3977"
         style="fill:#010202;fill-opacity:1;fill-rule:nonzero;stroke:none"
         d="m 0,0 c -0.071,-1.332 -2.285,-2.251 -6.635,-2.759 -2.836,-0.175 -5.676,-0.356 -8.508,-0.531 -8.281,-0.876 -19.975,-1.858 -35.08,-2.944 -0.844,-0.118 -2.603,-0.436 -5.293,-0.958 -2.191,-0.464 -3.902,-0.658 -5.144,-0.592 -1.333,0.076 -3.317,1.365 -5.96,3.882 -2.65,2.514 -4.068,4.401 -4.246,5.657 -0.884,8.112 -1.725,19.382 -2.51,33.814 -0.796,15.92 -1.508,27.181 -2.143,33.789 -0.206,2.338 -0.14,6.576 0.197,12.711 0.171,0.071 3.814,0.536 10.928,1.394 4.601,0.579 8.231,0.797 10.881,0.654 2.489,-0.137 6.291,-3.588 11.412,-10.354 0.773,-5.533 1.78,-13.778 3.006,-24.729 0.021,-4.249 0.035,-8.492 0.054,-12.731 0.002,-5.983 0.536,-9.961 1.588,-11.933 11.953,2.589 20.411,3.75 25.384,3.475 1.574,-0.085 3.58,-1.408 6.017,-3.949 2.202,-2.361 3.506,-4.348 3.916,-5.951 0.287,-0.848 0.728,-3.84 1.316,-8.983 C -0.228,3.813 0.047,0.821 0,0 Z m -9.217,9.355 c -0.495,3.101 -1.157,7.709 -1.986,13.829 l -3.48,0.19 c -3.48,0.194 -8.734,-0.393 -15.746,-1.759 -7.021,-1.36 -12.184,-1.948 -15.498,-1.768 -0.418,0.024 -1.001,-0.014 -1.757,-0.095 -0.747,-0.08 -1.332,-0.114 -1.749,-0.09 -0.911,0.052 -1.553,2.831 -1.911,8.335 -0.014,5.822 -0.242,14.603 -0.678,26.351 -0.512,5.77 -1.287,14.46 -2.311,26.071 -8.539,-1.028 -14.551,-1.445 -18.031,-1.256 l -0.087,-1.622 c -0.15,-2.73 0.149,-7.073 0.907,-13.014 0.97,-8.121 1.511,-12.64 1.627,-13.559 0.166,-9.155 0.782,-22.914 1.858,-41.262 0.413,-1.517 0.827,-3.831 1.238,-6.922 3.015,0.332 7.493,0.919 13.445,1.754 9.831,1.954 24.552,3.565 44.159,4.817 z m -32.268,14.237 c -0.917,2.964 -1.413,6.856 -1.482,11.683 -0.033,3.906 -0.026,7.855 0.027,11.843 -0.783,5.447 -1.537,13.725 -2.257,24.819 l -4.592,4.993 -0.047,-0.872 c -0.15,-2.736 0.028,-6.363 0.526,-10.881 0.875,-6.785 1.301,-10.383 1.278,-10.796 0.445,-7.093 1.111,-17.646 2.01,-31.661 1.007,0.19 2.522,0.483 4.537,0.872 z M -3.786,6.065 c -0.092,2.83 -0.626,6.685 -1.61,11.563 -0.552,0.526 -1.346,1.318 -2.363,2.371 L -7.84,18.51 c -0.199,-3.651 0.176,-6.709 1.119,-9.164 0.709,-0.711 1.691,-1.802 2.935,-3.281" /></g><g
       transform="translate(583.32335,3707.4551)"
       id="g3979"><path
         inkscape:connector-curvature="0"
         id="path3981"
         style="fill:#010202;fill-opacity:1;fill-rule:nonzero;stroke:none"
         d="m 0,0 c -0.004,-1.579 -0.367,-3.679 -1.095,-6.292 l -1.595,-6.391 c -4.438,-0.507 -14.276,-0.256 -29.514,0.749 -0.17,0.01 -3.247,-0.075 -9.245,-0.246 -0.035,-0.659 -0.17,-1.565 -0.4,-2.717 3.297,-0.592 6.549,-1.19 9.757,-1.778 3.022,-0.996 5.047,-3.513 6.071,-7.562 0.064,-0.332 0.064,-1.204 -0.014,-2.607 -0.273,-4.974 -0.586,-8.359 -0.932,-10.166 -0.773,-0.374 -2.551,-0.564 -5.339,-0.578 -2.782,-0.014 -5.485,-0.033 -8.107,-0.057 -2.617,-0.023 -3.971,-0.028 -4.051,-0.023 -0.913,-2.944 -2.112,-8.145 -3.601,-15.622 -1.285,-6.738 -2.648,-11.896 -4.089,-15.466 -0.787,-2.119 -1.51,-3.157 -2.164,-3.12 -0.669,0.033 -1.669,-0.013 -3.004,-0.152 -1.339,-0.127 -2.382,-0.18 -3.122,-0.137 -4.978,0.276 -8.361,0.749 -10.151,1.432 -1.223,0.479 -2.489,2.375 -3.807,5.689 -1.244,3.068 -1.827,5.348 -1.744,6.837 0.17,3.148 1.984,16.205 5.449,39.176 3.459,22.961 5.419,34.809 5.877,35.53 0.45,0.725 1.465,1.043 3.044,0.957 0.493,-0.028 1.299,-0.18 2.406,-0.445 1.107,-0.271 1.951,-0.417 2.534,-0.451 23.459,-1.284 40.875,-3.569 52.252,-6.846 0.815,-0.299 2.335,-2.953 4.556,-7.969 L 0,0 Z m -9.524,6.007 c -8.634,1.384 -17.277,2.726 -25.913,4.025 -10.947,1.678 -19.811,2.698 -26.59,3.072 L -72.06,-58.691 c -0.09,-0.241 -0.095,-0.659 -0.007,-1.237 0.097,-0.592 0.135,-1.01 0.121,-1.257 1.404,-0.075 3.463,-0.232 6.187,-0.459 2.726,-0.237 4.749,-0.389 6.071,-0.46 0.927,8.017 2.636,19.481 5.111,34.392 0.311,1.147 1.124,1.683 2.451,1.612 0.745,-0.043 1.849,-0.19 3.336,-0.436 1.474,-0.247 2.584,-0.384 3.328,-0.427 1.152,-0.062 2.913,-0.099 5.272,-0.104 2.364,0 4.12,-0.038 5.277,-0.1 0.28,0.564 0.526,2.798 0.74,6.695 l -1.115,0.061 c -1.664,0.005 -4.672,0.503 -9.027,1.484 -4.85,1.01 -7.548,1.868 -8.09,2.556 1.166,9.131 2.339,13.782 3.508,13.971 3.952,0.778 16.599,0.209 37.946,-1.706 0.658,1.455 1.137,4.821 1.427,10.113 z m -38.963,-41.912 -2.667,3.641 c -0.673,-4.622 -1.631,-11.634 -2.899,-21.045 -0.145,-1.072 -0.55,-2.86 -1.23,-5.358 -0.678,-2.498 -1.055,-4.414 -1.126,-5.736 -0.015,-0.252 0.177,-0.925 0.578,-2.025 0.396,-1.105 0.631,-1.783 0.697,-2.039 1.162,6.008 2.942,15.015 5.35,27.025 0.904,4.352 1.333,6.201 1.297,5.537 z m 3.784,25.735 c 0.016,0.327 -0.593,1.446 -1.816,3.342 -0.477,-2.551 -0.972,-4.892 -1.508,-7.031 l 2.238,-0.123 c 0.73,2.707 1.093,3.978 1.086,3.812 z m 15.138,-21.904 0.382,6.965 c 0.018,0.327 -0.304,0.948 -0.963,1.863 -0.659,0.901 -1.024,1.446 -1.095,1.617 0.043,-0.669 -0.048,-1.536 -0.268,-2.608 -0.23,-1.067 -0.353,-1.853 -0.379,-2.352 -0.064,-1.157 0.151,-2.148 0.649,-2.963 0.493,-0.82 1.05,-1.659 1.674,-2.522 z M -3.444,0.915 c -0.005,-0.081 -0.522,1.066 -1.557,3.451 -0.067,-1.242 -0.358,-3.157 -0.87,-5.751 -0.517,-2.588 -0.802,-4.3 -0.847,-5.13 -0.019,-0.327 0.169,-0.716 0.564,-1.147 0.456,-0.697 0.726,-1.086 0.807,-1.171 1.223,5.67 1.858,8.918 1.903,9.748" /></g><g
       transform="translate(117.43935,3695.4311)"
       id="g3983"><path
         inkscape:connector-curvature="0"
         id="path3985"
         style="fill:#ffffff;fill-opacity:1;fill-rule:nonzero;stroke:none"
         d="m 0,0 c 0,-21.529 -17.455,-38.981 -38.984,-38.981 -21.529,0 -38.984,17.452 -38.984,38.981 0,21.535 17.455,38.986 38.984,38.986 C -17.455,38.986 0,21.535 0,0" /></g><g
       transform="translate(32.18435,3695.4311)"
       id="g3987"><path
         inkscape:connector-curvature="0"
         id="path3989"
         style="fill:#010202;fill-opacity:1;fill-rule:nonzero;stroke:none"
         d="M 0,0 C 0.009,25.564 20.711,46.273 46.273,46.273 71.818,46.273 92.53,25.564 92.539,0 92.53,-25.554 71.818,-46.254 46.273,-46.264 20.711,-46.254 0.009,-25.554 0,0 Z M 14.567,0 C 14.598,-17.495 28.762,-31.665 46.273,-31.689 63.777,-31.665 77.941,-17.495 77.972,0 77.941,17.514 63.777,31.675 46.273,31.709 28.762,31.675 14.598,17.514 14.567,0" /></g><g
       transform="translate(644.83535,3680.9231)"
       id="g3991"><path
         inkscape:connector-curvature="0"
         id="path3993"
         style="fill:#ffffff;fill-opacity:1;fill-rule:nonzero;stroke:none"
         d="m 0,0 c 0,-21.529 -17.453,-38.981 -38.982,-38.981 -21.529,0 -38.981,17.452 -38.981,38.981 0,21.534 17.452,38.987 38.981,38.987 C -17.453,38.987 0,21.534 0,0" /></g><g
       transform="translate(559.58935,3680.9281)"
       id="g3995"><path
         inkscape:connector-curvature="0"
         id="path3997"
         style="fill:#010202;fill-opacity:1;fill-rule:nonzero;stroke:none"
         d="M 0,0 C 0,25.564 20.71,46.269 46.262,46.269 71.814,46.269 92.523,25.564 92.523,0 92.523,-25.555 71.814,-46.264 46.262,-46.264 20.71,-46.264 0,-25.555 0,0 Z M 14.563,0 C 14.594,-17.509 28.753,-31.67 46.262,-31.699 63.771,-31.67 77.93,-17.509 77.961,0 77.93,17.509 63.771,31.675 46.262,31.699 28.753,31.675 14.594,17.509 14.563,0" /></g><g
       transform="translate(275.30335,3878.1161)"
       id="g3999"><path
         inkscape:connector-curvature="0"
         id="path4001"
         style="fill:#652c90;fill-opacity:1;fill-rule:nonzero;stroke:none"
         d="m 0,0 c 0,0 -77.678,19.419 -93.859,3.242 -16.182,-16.186 -22.663,-67.978 51.782,-113.284 74.445,-45.306 230.603,14.565 247.599,69.59 16.997,55.016 -93.859,30.742 -93.859,30.742" /></g><g
       transform="translate(229.44235,3761.8541)"
       id="g4003"><path
         inkscape:connector-curvature="0"
         id="path4005"
         style="fill:#231e20;fill-opacity:1;fill-rule:nonzero;stroke:none"
         d="m 0,0 c -49.103,29.779 -65.699,63.777 -65.669,90.209 0.041,14.764 5.043,26.901 12.51,34.44 8.072,7.505 19.332,8.353 31.844,8.59 29.921,-0.056 68.658,-9.871 68.937,-9.909 L 44.09,109.198 c -0.019,0 -9.449,2.365 -22.453,4.75 -12.994,2.385 -29.519,4.731 -42.952,4.722 -11.204,0.232 -20.091,-2.266 -21.539,-4.31 -4.156,-4.087 -8.293,-12.791 -8.252,-24.151 C -51.076,70.069 -38.718,40.712 7.567,12.45 24.386,2.176 46.515,-2.485 70.69,-2.465 c 36.746,-0.029 77.928,10.757 111.021,26.55 33.202,15.579 57.879,36.976 62.708,53.873 1.038,3.362 1.451,6.158 1.451,8.444 -0.242,7.064 -3.051,10.208 -10.308,13.707 -7.204,3.181 -18.255,4.551 -29.558,4.508 -11.533,0.01 -23.36,-1.285 -32.225,-2.593 -8.876,-1.299 -14.684,-2.579 -14.693,-2.589 l -3.12,14.232 c 0.271,0.049 24.889,5.496 50.038,5.515 12.379,-0.029 24.9,-1.228 35.357,-5.717 10.385,-4.168 19.303,-13.769 19.071,-27.063 0,-4.016 -0.714,-8.255 -2.093,-12.739 C 250.378,49.165 222.842,27.788 187.981,10.933 152.987,-5.703 110.224,-16.997 70.69,-17.03 44.714,-17.016 20.008,-12.147 0,0" /></g><g
       transform="translate(400.31235,3826.7311)"
       id="g4007"><path
         inkscape:connector-curvature="0"
         id="path4009"
         style="fill:#652c90;fill-opacity:1;fill-rule:nonzero;stroke:none"
         d="m 0,0 -12.54,12.545 c 0,0 0,0 0,18.614 0,18.604 18.613,18.604 18.613,28.314 0,9.709 12.944,36.013 -86.179,36.013 -99.122,0 -50.573,-50.578 -50.573,-69.182 0,-18.614 -15.371,-15.38 -15.371,-15.38 0,0 19.42,-24.265 58.259,-24.265 C -48.952,-13.341 0,0 0,0" /></g><g
       transform="translate(248.57535,3833.1081)"
       id="g4011"><path
         inkscape:connector-curvature="0"
         id="path4013"
         style="fill:#231e20;fill-opacity:1;fill-rule:nonzero;stroke:none"
         d="m 0,0 -12.571,15.736 19.716,-4.049 0.09,-0.009 c 0.202,-0.019 0.552,-0.052 0.986,-0.052 1.257,-0.02 2.734,0.331 3.457,0.976 0.663,0.631 1.998,1.806 2.1,7.325 0.22,1.697 -2.292,8.42 -5.407,15.689 -3.004,7.443 -6.432,16.058 -6.491,25.421 -0.282,9.577 4.853,20.197 16.238,26.119 11.265,6.078 27.857,9.193 53.511,9.245 39.823,-0.052 62.232,-4.04 75.938,-10.43 13.899,-6.012 18.531,-17.429 18.078,-25.076 -0.04,-3.869 -0.612,-7.012 -0.552,-7.794 0.061,-4.936 -2.722,-8.975 -5.185,-11.185 -2.513,-2.352 -4.964,-3.859 -6.993,-5.438 -4.08,-3.385 -6.211,-5.054 -6.431,-11.696 -0.005,-8.472 -0.007,-13.086 -0.01,-15.598 l 10.409,-10.412 -5.144,-5.144 5.144,5.144 8.873,-8.861 -12.108,-3.305 C 153.337,-13.446 104.297,-26.939 63.941,-27 21.826,-26.93 0.624,-0.801 0,0 Z m 24.109,-1.408 c 8.811,-5.485 21.956,-11.014 39.832,-11.023 18.611,-0.009 40.245,3.248 57.069,6.533 6.291,1.228 11.9,2.452 16.459,3.504 l -5.557,5.562 0,3 c 0,0 0,0 0,18.614 -0.18,10.378 5.246,17.765 10.148,21.677 4.488,3.489 8.001,5.954 8.463,6.642 l 0,0.014 c 0.062,3.247 0.583,5.542 0.553,7.78 -0.453,4.054 0.109,6.746 -9.717,11.91 -9.999,4.793 -30.962,9.074 -69.73,9.022 C 47.21,81.879 32.569,78.542 25.111,74.374 17.796,70.05 16.732,66.636 16.449,61.037 16.381,55.552 18.903,48.218 21.847,41.129 24.68,33.857 28.108,27.456 28.338,19.927 28.428,11.635 25.536,5.026 20.873,1.318 20.745,1.214 20.617,1.114 20.489,1.02 c 1.107,-0.797 2.314,-1.612 3.62,-2.428" /></g><g
       transform="translate(387.56135,3867.9841)"
       id="g4015"><path
         inkscape:connector-curvature="0"
         id="path4017"
         style="fill:#231e20;fill-opacity:1;fill-rule:nonzero;stroke:none"
         d="m 0,0 c 0,0.014 1.676,1.616 4.366,4.608 2.691,2.982 6.304,7.259 9.867,12.232 7.225,9.928 13.879,22.914 13.737,33.013 -0.078,5.656 -1.614,10.326 -6.211,15.01 -9.233,9.245 -15.164,20.064 -19.209,29.879 -1.453,3.522 -2.683,6.973 -3.731,10.197 -0.372,-1.37 -0.673,-2.527 -0.915,-3.503 -0.763,-3.091 -0.936,-4.22 -0.953,-4.409 l -0.002,-0.029 -5.369,0.522 5.39,0 -14.562,0 c 0.109,2.029 0.28,5.02 6.794,26.407 1.145,3.22 1.316,4.998 3.914,8.037 0.912,0.976 2.889,2.508 5.822,2.522 4.454,-0.214 6.161,-2.873 6.893,-3.897 0.823,-1.275 1.186,-2.247 1.586,-3.291 0.733,-2.048 1.344,-4.323 2.089,-7.064 1.484,-5.419 3.43,-12.488 6.502,-19.941 C 19.581,91.622 24.658,82.557 32.054,75.17 39.441,67.873 42.603,58.624 42.532,49.853 42.392,34.065 33.953,19.514 26.073,8.363 18.116,-2.736 10.319,-10.274 10.127,-10.464 l 0,-0.009 L 0,0" /></g><g
       transform="translate(387.77235,3848.9861)"
       id="g4019"><path
         inkscape:connector-curvature="0"
         id="path4021"
         style="fill:#ffffff;fill-opacity:1;fill-rule:nonzero;stroke:none"
         d="m 0,0 c 0,-9.71 0,-9.71 0,-9.71 l 12.54,-12.545 c 0,0 -48.952,-13.341 -87.791,-13.341 -38.839,0 -58.259,24.265 -58.259,24.265 0,0 15.371,-3.234 15.371,15.38 0,0 26.702,-12.137 47.743,-12.137 C -49.355,-8.088 0,0 0,0" /></g><g
       transform="translate(248.57535,3833.1081)"
       id="g4023"><path
         inkscape:connector-curvature="0"
         id="path4025"
         style="fill:#231e20;fill-opacity:1;fill-rule:nonzero;stroke:none"
         d="m 0,0 -12.63,15.816 19.806,-4.138 0.08,0 c 0.202,-0.029 0.553,-0.062 0.965,-0.052 1.257,-0.02 2.722,0.322 3.447,0.976 0.673,0.631 2.008,1.821 2.11,7.325 l 0,11.317 10.29,-4.684 c 0.019,0.019 6.301,-2.864 15.224,-5.77 8.904,-2.935 20.359,-5.746 29.504,-5.708 9.707,-0.019 27.311,1.963 42.113,3.973 14.863,2.01 27.084,4.006 27.112,4.015 l 8.463,1.39 0,-8.582 c -0.005,-3.134 -0.007,-5.258 -0.007,-6.694 l 19.279,-19.273 -12.108,-3.305 C 153.337,-13.446 104.297,-26.939 63.941,-27 21.826,-26.93 0.624,-0.801 0,0 Z m 24.109,-1.408 c 8.811,-5.485 21.956,-11.014 39.832,-11.023 18.611,-0.009 40.245,3.248 57.069,6.533 6.291,1.228 11.9,2.452 16.459,3.504 l -5.557,5.562 0,3 c 0,0 0,0 0,1.205 C 116.861,5.069 85.459,0.55 68.796,0.512 53.371,0.617 36.604,6.017 26.724,9.767 25.432,6.221 23.416,3.338 20.882,1.318 20.754,1.214 20.624,1.114 20.496,1.015 c 1.105,-0.792 2.309,-1.607 3.613,-2.423" /></g></g></svg>